<svg width="27" height="22" viewBox="0 0 27 22" fill="none" xmlns="http://www.w3.org/2000/svg">
  <path
    d="M26.2305 2.50087C25.2636 2.925 24.2333 3.20612 23.1592 3.34262C24.2642 2.68287 25.1076 1.64612 25.5041 0.3965C24.4738 1.01075 23.3363 1.44463 22.1241 1.68675C21.1458 0.645125 19.7516 0 18.2306 0C15.2796 0 12.9038 2.39525 12.9038 5.33162C12.9038 5.75413 12.9396 6.16037 13.0273 6.54712C8.59597 6.331 4.67484 4.20713 2.04072 0.97175C1.58084 1.76963 1.31109 2.68288 1.31109 3.666C1.31109 5.512 2.26172 7.14837 3.67872 8.09575C2.82234 8.0795 1.98222 7.83087 1.27047 7.43925C1.27047 7.4555 1.27047 7.47662 1.27047 7.49775C1.27047 10.088 3.11809 12.2395 5.54097 12.7351C5.10709 12.8538 4.63422 12.9106 4.14347 12.9106C3.80222 12.9106 3.45772 12.8911 3.13434 12.8196C3.82497 14.9305 5.78472 16.4824 8.11497 16.5327C6.30147 17.9514 3.99884 18.8061 1.50609 18.8061C1.06897 18.8061 0.649719 18.7866 0.230469 18.733C2.59159 20.2556 5.38984 21.125 8.40747 21.125C18.216 21.125 23.5785 13 23.5785 5.95725C23.5785 5.72162 23.5703 5.49413 23.559 5.26825C24.6168 4.5175 25.5057 3.57987 26.2305 2.50087Z"
    fill="black" />
</svg>